<svg width="59" height="53" viewBox="0 0 59 53" fill="none" xmlns="http://www.w3.org/2000/svg">
<path d="M29.1673 37.9316C28.4132 37.9316 27.7689 38.1853 27.2342 38.6926C26.6995 39.1998 26.4321 39.8305 26.4321 40.5846C26.4321 41.3386 26.6995 41.9556 27.2342 42.4697C27.7689 42.9838 28.4132 43.2443 29.1673 43.2443C29.9214 43.2443 30.5795 42.9838 31.1073 42.4697C31.6351 41.9556 31.9025 41.3249 31.9025 40.5846C31.9025 39.8442 31.6351 39.1998 31.1073 38.6926C30.5795 38.1853 29.9351 37.9316 29.1673 37.9316Z" fill="#A0140A"/>
<path d="M31.221 33.9334L31.5774 15.8291H26.7515L27.1285 33.9334H31.221Z" fill="#A0140A"/>
<path d="M57.5022 42.8991L34.5102 3.08479C33.3928 1.15165 31.398 0 29.1701 0C26.9422 0 24.9405 1.15165 23.83 3.08479L0.838034 42.8991C-0.279345 44.8322 -0.279345 47.1356 0.838034 49.0687C1.95541 51.0018 3.95024 52.1535 6.17814 52.1535H52.1552C54.3831 52.1535 56.3848 51.0018 57.4953 49.0687C58.6127 47.1356 58.6127 44.8322 57.4953 42.8991H57.5022ZM53.9375 47.0122C53.7593 47.3206 53.2246 48.0404 52.1552 48.0404H6.17814C5.10875 48.0404 4.57405 47.3206 4.39582 47.0122C4.21759 46.7037 3.86113 45.8811 4.39582 44.9556L27.3878 5.14131C27.9225 4.21588 28.8136 4.11305 29.1701 4.11305C29.5266 4.11305 30.4177 4.21588 30.9524 5.14131L53.9444 44.9625C54.4791 45.8879 54.1226 46.7105 53.9444 47.019L53.9375 47.0122Z" fill="#A0140A"/>
</svg>
