<svg width="72" height="72" viewBox="0 0 72 72" fill="none" xmlns="http://www.w3.org/2000/svg">
<path d="M35.9856 64.8C34.4016 64.8 33.048 64.26 31.9248 63.1728C30.8016 62.0856 30.24 60.768 30.24 59.2128C30.24 57.6576 30.8016 56.304 31.9248 55.2312C33.048 54.1584 34.4016 53.6256 35.9856 53.6256C37.5696 53.6256 38.9592 54.1584 40.068 55.2312C41.1768 56.304 41.7312 57.6288 41.7312 59.2128C41.7312 60.7968 41.1768 62.0928 40.068 63.1728C38.9592 64.2528 37.5984 64.8 35.9856 64.8ZM31.7088 45.2304L30.9168 7.20001H41.0616L40.3056 45.2304H31.7088Z" fill="white"/>
</svg>
