<svg width="72" height="72" viewBox="0 0 72 72" fill="none" xmlns="http://www.w3.org/2000/svg">
<path d="M61.8407 27.8191H43.2935L46.2815 12.8935C46.5263 11.6623 45.9719 10.4167 44.8919 9.7759C43.8191 9.1351 42.4511 9.2431 41.4935 10.0423L20.16 27.8191H10.152C8.51755 27.8191 7.19995 29.1439 7.19995 30.7711V60.3127C7.19995 61.9471 8.52475 63.2647 10.152 63.2647H54.4608C55.5767 63.2647 56.5991 62.6311 57.1031 61.6303L64.4903 46.8631C64.6919 46.4527 64.7999 45.9991 64.7999 45.5455V30.7783C64.7999 29.1439 63.4752 27.8263 61.8479 27.8263L61.8407 27.8191ZM13.104 33.7303H18.2736V57.3607H13.104V33.7303ZM58.8815 44.8471L52.6247 57.3607H24.1704V32.1607L38.8295 19.9423L36.7776 30.1951C36.6048 31.0663 36.8279 31.9663 37.3895 32.6503C37.9512 33.3343 38.7863 33.7303 39.6719 33.7303H58.8743V44.8471H58.8815Z" fill="white"/>
</svg>
