<svg width="237" height="116" viewBox="0 0 237 116" fill="none" xmlns="http://www.w3.org/2000/svg">
<rect x="2" y="2" width="233" height="112" rx="10" fill="white" stroke="#0D47A0" stroke-width="4"/>
<path d="M57.6059 55.6609C61.674 55.6609 64.9798 52.3552 64.9798 48.287C64.9798 44.2189 61.674 40.9131 57.6059 40.9131C53.5377 40.9131 50.2319 44.2189 50.2319 48.287C50.2319 52.3552 53.5377 55.6609 57.6059 55.6609ZM57.6059 45.125C59.3493 45.125 60.7679 46.5435 60.7679 48.287C60.7679 50.0305 59.3493 51.449 57.6059 51.449C55.8624 51.449 54.4438 50.0305 54.4438 48.287C54.4438 46.5435 55.8624 45.125 57.6059 45.125Z" fill="#0D47A0"/>
<path d="M56.2629 73.619C56.6503 73.9378 57.1253 74.1002 57.6002 74.1002C58.0751 74.1002 58.5501 73.9378 58.9375 73.619C59.4812 73.1691 72.3168 62.4957 72.848 49.1726C72.8667 48.8789 72.873 48.579 72.873 48.279C72.873 39.8552 66.0177 33 57.594 33C49.1702 33 42.3149 39.8552 42.3149 48.279C42.3149 48.579 42.3274 48.8727 42.3399 49.1351C42.8774 62.4894 55.7067 73.1691 56.2566 73.6128L56.2629 73.619ZM57.6002 37.2181C63.6993 37.2181 68.6611 42.1799 68.6611 48.279C68.6611 48.4977 68.6548 48.7164 68.6361 48.9664C68.2674 58.0776 60.7247 66.1764 57.594 69.151C54.4694 66.1764 46.9205 58.0713 46.5518 48.9352C46.5393 48.7227 46.5331 48.504 46.5331 48.2853C46.5331 42.1862 51.4948 37.2244 57.594 37.2244L57.6002 37.2181Z" fill="#0D47A0"/>
<path d="M69.22 66.2837C68.2701 67.646 67.2953 68.8833 66.3642 69.9894C72.7257 71.058 76.094 73.0952 76.094 74.095C76.094 75.4886 69.6137 78.8881 57.6029 78.8881C45.5922 78.8881 39.1119 75.4886 39.1119 74.095C39.1119 73.0952 42.4864 71.058 48.848 69.9894C47.9169 68.8833 46.942 67.646 45.9921 66.2837C38.5057 67.9022 35 71.0767 35 74.095C35 78.3819 42.074 83 57.5967 83C73.1194 83 80.1934 78.3882 80.1934 74.095C80.1934 71.0767 76.6876 67.9022 69.2075 66.2837H69.22Z" fill="#0D47A0"/>
<path d="M132.56 56.56V69.24C132.56 70.28 132.76 70.76 133.32 71.04C133.88 71.36 135.12 71.48 139.08 71.48C143.4 71.48 144.72 71.28 145.52 70.64C146.16 70.08 146.36 69.28 146.48 66.12C147.28 66.6 148.2 67.08 149.36 67.4C150.36 67.68 150.36 67.68 150.24 68.72C149.88 72.2 149.4 73.28 148.08 74.12C146.72 75.04 144.8 75.44 138.6 75.44C133.16 75.44 131.16 74.96 130.16 74.32C129.2 73.72 128.64 72.52 128.64 70.36V57.88C126.6 58.6 125.76 58.96 125.44 59.04C125.04 59.16 125 59.12 124.92 58.72L124.4 55.6C124.32 55.2 124.36 55.2 124.72 55.08C125.04 55 126.08 54.76 128.64 53.92V49.52C128.68 47.32 128.6 45.44 128.4 43.84C129.76 43.88 131.04 43.96 132.24 44.08C132.8 44.16 133.04 44.32 133.04 44.52C133.04 44.84 132.96 45 132.8 45.36C132.6 45.76 132.56 46.64 132.56 49.16V52.6L136.4 51.32V45.52C136.4 43.12 136.32 41.88 136.08 39.84C137.6 39.88 138.84 39.96 140.16 40.16C140.56 40.2 140.8 40.36 140.8 40.6C140.8 40.88 140.68 41.08 140.56 41.4C140.36 41.88 140.32 42.88 140.32 45V50.04L143.4 49C147.16 47.76 148.36 47.24 148.64 47.2C148.92 47.16 149.08 47.28 149.08 47.6L148.96 52.72C148.88 56.76 148.56 59.72 148 61.76C147.4 64.08 146.28 64.8 144.56 64.8C144.08 64.8 143.6 64.8 143.08 64.72C142.2 64.64 142.2 64.64 142 63.4C141.88 62.48 141.56 61.32 141.16 60.52C142 60.72 142.72 60.8 143.28 60.8C143.96 60.8 144.24 60.6 144.48 59.32C144.76 57.8 144.92 56.24 144.96 52.32L140.32 53.92V60.88C140.32 64.88 140.4 66.84 140.4 67.08C140.4 67.48 140.36 67.52 139.96 67.52H136.76C136.36 67.52 136.32 67.48 136.32 67.08C136.32 66.8 136.4 64.88 136.4 60.88V55.24L132.56 56.56ZM122.48 53.8V63.68C123.76 63.16 125 62.56 126.36 61.84C126.28 62.56 126.28 63.48 126.32 64.32C126.4 65.6 126.4 65.6 125.28 66.16C122.8 67.4 119.96 68.56 117.32 69.56C116.64 69.84 116.16 70.04 116 70.2C115.84 70.36 115.56 70.48 115.32 70.48C115.08 70.48 114.88 70.36 114.72 70C114.32 68.96 114 67.8 113.64 66.44C114.92 66.2 116.16 65.92 117.6 65.44L118.52 65.16V53.8H118.2C115.6 53.8 114.8 53.88 114.56 53.88C114.16 53.88 114.16 53.84 114.16 53.44V50.4C114.16 50 114.16 49.96 114.56 49.96C114.8 49.96 115.6 50.04 118.2 50.04H118.52V46.28C118.52 43.64 118.48 42 118.2 40.4C119.76 40.44 121 40.52 122.32 40.68C122.72 40.72 122.96 40.92 122.96 41.16C122.96 41.44 122.84 41.64 122.72 41.96C122.52 42.44 122.48 43.44 122.48 45.76V50.04C124.76 50.04 125.52 49.96 125.76 49.96C126.12 49.96 126.16 50 126.16 50.4V53.44C126.16 53.84 126.12 53.88 125.76 53.88C125.52 53.88 124.76 53.8 122.48 53.8ZM163.44 57.68L164.84 55.68C165.12 55.28 165.28 55.24 165.68 55.44C167.8 56.32 170.32 57.56 172.88 58.96C174.96 56.72 176.72 54.08 178.4 50.8C178.84 49.96 179.28 48.76 179.6 47.4C180.72 47.8 182.28 48.44 183.12 48.92C183.56 49.16 183.72 49.36 183.72 49.6C183.72 49.84 183.64 50.08 183.28 50.32C182.84 50.68 182.56 51.36 182.04 52.36C180.28 55.8 178.48 58.6 176.4 61C178.88 62.52 181.2 64.12 183.08 65.6C183.44 65.88 183.36 65.96 183.04 66.4L181.48 68.56C181.16 68.96 181 69.04 180.68 68.76C178.64 67.12 176.2 65.44 173.6 63.84C171.32 65.88 168.76 67.56 165.72 69C165.24 69.24 164.92 69.4 164.72 69.4C164.4 69.4 164.24 69.12 163.88 68.48C163.36 67.52 162.76 66.8 162.16 66.28C165.2 64.96 167.76 63.48 169.96 61.72C167.68 60.44 165.4 59.28 163.44 58.4C163.12 58.24 163.12 58.12 163.44 57.68ZM163.6 49L165.8 47.88C166.32 47.6 166.4 47.64 166.64 48C167.8 49.48 168.96 51.44 169.88 53.24C170.08 53.6 170.04 53.68 169.52 53.96L167.28 55.24C166.8 55.52 166.76 55.48 166.56 55.08C165.68 53.2 164.56 51.28 163.36 49.64C163.12 49.36 163.12 49.24 163.6 49ZM170.24 46.88L172.44 45.88C172.96 45.64 173 45.76 173.24 46.12C174.4 47.88 175.16 49.56 176 51.56C176.16 51.96 176.12 52.04 175.6 52.28L173.32 53.32C172.76 53.56 172.64 53.52 172.48 53.08C171.68 51 171 49.28 169.88 47.56C169.64 47.16 169.72 47.12 170.24 46.88ZM160.2 76.24H156.76C156.36 76.24 156.32 76.2 156.32 75.8C156.32 75.52 156.4 72.84 156.4 60.44V52.48C156.4 44.56 156.32 41.76 156.32 41.52C156.32 41.12 156.36 41.08 156.76 41.08C157.04 41.08 158.36 41.16 162.08 41.16H183.92C187.68 41.16 188.96 41.08 189.24 41.08C189.64 41.08 189.68 41.12 189.68 41.52C189.68 41.76 189.6 44.56 189.6 51.12V60.4C189.6 72.8 189.68 75.52 189.68 75.76C189.68 76.16 189.64 76.2 189.24 76.2H185.8C185.4 76.2 185.36 76.16 185.36 75.76V73.96H160.64V75.8C160.64 76.2 160.6 76.24 160.2 76.24ZM160.64 44.92V70.16H185.36V44.92H160.64Z" fill="#0D47A0"/>
</svg>
