<svg width="237" height="116" viewBox="0 0 237 116" fill="none" xmlns="http://www.w3.org/2000/svg">
<rect x="2" y="2" width="233" height="112" rx="10" fill="white" stroke="#0D47A0" stroke-width="4"/>
<path d="M43.0874 78C42.7355 78 42.3777 77.9105 42.0616 77.7314C41.4055 77.3612 41 76.6627 41 75.9105V40.0911C41 39.3389 41.4055 38.6464 42.0616 38.2703C42.7176 37.9002 43.5168 37.9121 44.1668 38.2942L73.9861 56.2039C74.6123 56.58 75 57.2606 75 57.9949C75 58.7292 74.6123 59.4097 73.9861 59.7858L44.1668 77.6955C43.8388 77.8925 43.4631 77.994 43.0933 77.994L43.0874 78ZM45.1747 43.7805V72.2211L68.8512 58.0008L45.1747 43.7805Z" fill="#0D47A0"/>
<path d="M126.04 67.84V69.76C128.2 69.52 130.48 69.2 132.84 68.8C132.68 69.44 132.56 70.04 132.48 70.64L132.36 71.36C134.44 68.96 135.88 66.08 136.92 62.4C137.52 60.12 138 56.6 138.24 52.2C135.88 52.24 135 52.28 134.8 52.28C134.36 52.28 134.32 52.24 134.32 51.84V48.92C134.32 48.52 134.36 48.48 134.8 48.48C135 48.48 135.92 48.56 138.4 48.56C138.4 47.52 138.44 46.48 138.44 45.36C138.44 42.88 138.4 41.64 138.16 39.72C139.6 39.76 140.76 39.84 142.16 40C142.56 40.04 142.76 40.2 142.76 40.44C142.76 40.76 142.64 41.04 142.52 41.4C142.36 41.8 142.28 43.04 142.28 45.48C142.28 46.56 142.28 47.56 142.24 48.56H144.52C147.6 48.56 148.64 48.48 148.88 48.48C149.28 48.48 149.36 48.56 149.36 48.96C149.28 50.32 149.28 51.48 149.28 52.76C149.24 60.44 148.88 66.36 148.12 71.08C147.6 74.08 146.12 75.48 143.04 75.48C142.2 75.48 141.52 75.44 140.84 75.4C139.92 75.32 139.92 75.32 139.8 74C139.64 73 139.4 72.12 139 71.32C140.32 71.52 141.28 71.64 142.32 71.64C143.52 71.64 144.2 71 144.48 69.12C145.12 65.24 145.44 59.84 145.48 52.2H142.12C141.84 56.88 141.32 60.8 140.64 63.68C139.52 68.24 137.48 72.12 134.72 75.08C134.32 75.48 134.08 75.68 133.88 75.68C133.68 75.68 133.48 75.48 133.12 75.12C132.32 74.2 131.44 73.6 130.56 73.2C131 72.8 131.44 72.4 131.84 71.96C131.64 72.04 131.4 72.08 131.08 72.12C126.84 72.96 121.64 73.72 117.12 74.2C116.52 74.28 115.84 74.36 115.64 74.48C115.4 74.6 115.2 74.72 114.96 74.72C114.72 74.72 114.52 74.48 114.4 74.04C114.16 73 113.92 71.72 113.72 70.52C115.32 70.6 116.44 70.56 117.92 70.48C119.32 70.4 120.84 70.32 122.44 70.16V67.84H120.08C116.6 67.84 115.44 67.92 115.2 67.92C114.8 67.92 114.76 67.88 114.76 67.52V65.12C114.76 64.72 114.8 64.68 115.2 64.68C115.44 64.68 116.6 64.76 120.08 64.76H122.44V63.04H120.84C117.44 63.04 116.28 63.12 116.04 63.12C115.6 63.12 115.56 63.08 115.56 62.68C115.56 62.4 115.64 61.48 115.64 59.36V55.08C115.64 52.92 115.56 52 115.56 51.8C115.56 51.4 115.6 51.36 116.04 51.36C116.28 51.36 117.44 51.44 120.84 51.44H122.44V49.68H119.48C115.88 49.68 114.64 49.76 114.4 49.76C114 49.76 113.96 49.72 113.96 49.32V46.96C113.96 46.56 114 46.52 114.4 46.52C114.64 46.52 115.88 46.6 119.48 46.6H122.44V44.8C120.72 44.96 119 45.12 117.28 45.2C116.16 45.28 116.12 45.24 115.8 44.32C115.48 43.44 115.04 42.8 114.56 42.16C120.24 42 124.56 41.52 128.72 40.64C129.6 40.44 130.32 40.2 130.92 39.96C131.84 40.72 132.64 41.48 133.2 42.16C133.44 42.44 133.52 42.6 133.52 42.88C133.52 43.12 133.2 43.28 132.68 43.28C132.2 43.28 131.52 43.44 130.88 43.56C129.28 43.88 127.68 44.16 126.04 44.36V46.6H128.36C131.92 46.6 133.16 46.52 133.4 46.52C133.76 46.52 133.8 46.56 133.8 46.96V49.32C133.8 49.72 133.84 49.76 133.48 49.76C133.24 49.76 131.92 49.68 128.36 49.68H126.04V51.44H127.76C131.12 51.44 132.28 51.36 132.56 51.36C132.96 51.36 133 51.4 133 51.8C133 52 132.92 52.92 132.92 55.08V59.36C132.92 61.48 133 62.44 133 62.68C133 63.08 132.96 63.12 132.56 63.12C132.28 63.12 131.12 63.04 127.76 63.04H126.04V64.76H127.52C130.96 64.76 132.16 64.68 132.4 64.68C132.8 64.68 132.84 64.72 132.84 65.12V67.52C132.84 67.88 132.8 67.92 132.4 67.92C132.16 67.92 130.96 67.84 127.52 67.84H126.04ZM129.52 60.48V58.36H126.04V60.48H129.52ZM129.52 53.96H126.04V56.04H129.52V53.96ZM119.12 60.48H122.44V58.36H119.12V60.48ZM119.12 56.04H122.44V53.96H119.12V56.04ZM171.04 44.88H161C157.4 44.88 156.16 44.96 155.92 44.96C155.52 44.96 155.48 44.92 155.48 44.56V41.48C155.48 41.04 155.52 41 155.92 41C156.16 41 157.4 41.08 161 41.08H185C188.64 41.08 189.84 41 190.08 41C190.48 41 190.52 41.04 190.52 41.48V44.56C190.52 44.92 190.48 44.96 190.08 44.96C189.84 44.96 188.64 44.88 185 44.88H174.76V48.8H177.2C180.8 48.8 182 48.72 182.24 48.72C182.68 48.72 182.72 48.76 182.72 49.2C182.72 49.44 182.64 50.68 182.64 53.52V62.6C182.64 65.4 182.72 66.68 182.72 66.92C182.72 67.32 182.68 67.36 182.24 67.36C182 67.36 180.8 67.28 177.2 67.28H168.8C165.24 67.28 164.04 67.36 163.76 67.36C163.36 67.36 163.32 67.32 163.32 66.92C163.32 66.68 163.4 65.4 163.4 62.6V53.52C163.4 50.68 163.32 49.44 163.32 49.2C163.32 48.76 163.36 48.72 163.76 48.72C164.04 48.72 165.24 48.8 168.8 48.8H171.04V44.88ZM179 64V59.4H174.72V64H179ZM167 64H171.08V59.4H167V64ZM179 52.08H174.72V56.32H179V52.08ZM167 56.32H171.08V52.08H167V56.32ZM185.8 70.24V54.84C185.8 52.92 185.76 50.56 185.56 49C187.08 49.08 188.32 49.16 189.6 49.32C190.08 49.4 190.36 49.56 190.36 49.92C190.36 50.2 190.28 50.44 190.12 50.68C189.88 51.04 189.8 52.24 189.8 54.88V67.64C189.8 72.72 189.88 75.36 189.88 75.6C189.88 76 189.84 76.04 189.44 76.04H186.24C185.84 76.04 185.8 76 185.8 75.6V74H160.28V75.6C160.28 76 160.24 76.04 159.84 76.04H156.68C156.28 76.04 156.24 76 156.24 75.6C156.24 75.32 156.32 72.76 156.32 67.72V54.64C156.32 52.6 156.28 50.36 156.08 49C157.64 49.08 158.8 49.16 160.08 49.32C160.56 49.4 160.84 49.6 160.84 49.92C160.84 50.28 160.68 50.52 160.56 50.76C160.32 51.16 160.28 52.48 160.28 54.92V70.24H185.8Z" fill="#0D47A0"/>
</svg>
