<svg width="312" height="92" viewBox="0 0 312 92" fill="none" xmlns="http://www.w3.org/2000/svg">
<rect width="92" height="92" rx="8" fill="#A0140A"/>
<path d="M78.2 66.1812C72.1004 66.1812 67.16 71.1216 67.16 77.2212C67.16 83.3208 72.1004 88.2612 78.2 88.2612C84.2996 88.2612 89.24 83.3208 89.24 77.2212C89.24 71.1216 84.2996 66.1812 78.2 66.1812ZM78.2 80.9012C76.1668 80.9012 74.52 79.2544 74.52 77.2212C74.52 75.188 76.1668 73.5412 78.2 73.5412C80.2332 73.5412 81.88 75.188 81.88 77.2212C81.88 79.2544 80.2332 80.9012 78.2 80.9012Z" fill="white"/>
<path d="M92 22.0211V15.5811H64.4C63.7652 15.5811 63.1672 15.9123 62.836 16.4551L44.436 46.3551C44.2612 46.6495 44.16 46.9807 44.16 47.3211V77.2211C44.16 78.2331 44.988 79.0611 46 79.0611H63.6088C63.5352 78.4539 63.48 77.8467 63.48 77.2211C63.48 69.0883 70.0672 62.5011 78.2 62.5011C84.5388 62.5011 89.93 66.5215 92 72.1427V33.0611L50.6 47.3211L66.7 22.0211H92Z" fill="white"/>
<path d="M43.2732 20.7262L35.6924 24.8662C35.306 25.0778 35.0392 25.4734 34.9748 25.915C34.9104 26.3658 35.0576 26.8166 35.3704 27.1294C35.6648 27.4238 36.0604 27.571 36.4744 27.5434H46.3276C46.7048 27.571 47.082 27.433 47.3764 27.1754C47.6892 26.8994 47.864 26.513 47.8548 26.1174C47.8548 24.1854 48.7932 22.2994 50.7252 20.3674C52.6572 18.4354 54.5432 17.4878 56.4752 17.4878C56.8524 17.4878 57.2112 17.3406 57.4872 17.0738C57.754 16.807 57.9012 16.4482 57.9012 16.071V6.02463C57.9012 5.64743 57.7448 5.27943 57.478 5.01263C56.926 4.46063 56.0244 4.46063 55.4632 5.01263C55.362 5.11383 55.2792 5.22423 55.224 5.34383L51.0472 13.0074L42.666 10.551C42.1876 10.413 41.6816 10.5326 41.3136 10.8546C40.8996 11.195 40.7432 11.747 40.8904 12.2898C40.8904 12.2898 42.1416 16.7886 43.2732 20.7262Z" fill="white"/>
<path d="M36.3676 31.2283C35.0244 31.2283 33.7272 30.6947 32.7612 29.7379C31.6296 28.6063 31.096 26.9871 31.326 25.3955C31.556 23.8131 32.522 22.4055 33.9112 21.6419L38.6308 19.0659V17.8883C38.6308 17.5479 38.5296 17.2259 38.364 16.9499C38.042 16.4071 37.4624 16.0483 36.7908 16.0483H0V79.5283H36.8C37.812 79.5283 38.64 78.7003 38.64 77.6883V31.2283H36.57C36.5056 31.2283 36.4412 31.2283 36.3768 31.2283H36.3676Z" fill="white"/>
<path d="M161.416 64.192L158.056 68.512C153.688 65.824 152.44 65.104 147.832 62.992C143.416 65.824 138.616 67.36 132.04 68.128C131.512 66.208 131.08 65.2 130.024 63.52C135.544 63.184 138.904 62.464 142.648 60.736C139.432 59.44 138.04 58.96 134.2 57.808C135.976 55.984 136.504 55.312 138.424 52.672H137.032C134.872 52.672 133.72 52.72 132.424 52.912V47.824C133.672 48.016 134.872 48.064 137.08 48.064H141.352C142.216 46.48 142.696 45.424 143.08 44.368H136.792C134.968 44.368 133.816 44.416 132.664 44.608V39.52C133.576 39.712 134.584 39.76 136.504 39.76H139.768C139.048 37.264 138.76 36.592 137.56 34.48L141.544 32.944H138.76C136.024 32.944 135.064 32.992 133.912 33.184V28.096C135.256 28.288 136.6 28.336 139.336 28.336H144.328V27.28C144.328 26.08 144.232 24.88 144.088 23.872H149.704C149.512 25.072 149.464 26.08 149.464 27.232V28.336H155.896C158.68 28.336 160.024 28.288 161.272 28.096V33.184C160.168 32.992 159.064 32.944 156.424 32.944H152.152L156.616 34.096C155.512 36.832 155.032 37.792 153.688 39.76H157.48C160.12 39.76 161.128 39.712 162.376 39.52V44.608C161.08 44.416 160.072 44.368 157.48 44.368H144.184L148.12 45.568C147.88 46.048 147.88 46.048 147.352 46.96C147.256 47.248 147.064 47.536 146.728 48.064H157.672C160.072 48.064 161.272 48.016 162.376 47.824V52.912C161.08 52.72 159.976 52.672 157.72 52.672H156.232C155.176 55.456 154.072 57.28 151.912 59.632C155.368 61.072 157.192 61.936 161.416 64.192ZM151 52.672H143.896C143.128 53.728 142.744 54.256 141.448 55.888C145.432 57.232 145.432 57.232 147.256 57.856C149.176 56.08 150.184 54.688 151 52.672ZM140.344 39.76H148.744C150.232 37.6 150.856 36.256 151.768 32.944H142.072C142.936 34.432 143.656 36.16 144.28 38.272L140.344 39.76ZM123.784 32.608V28.672C123.784 26.368 123.736 25.312 123.496 23.776H129.112C128.872 25.264 128.824 26.416 128.824 28.624V32.608H130.12C131.368 32.608 131.944 32.56 132.808 32.416V37.408C131.8 37.312 131.224 37.264 130.168 37.264H128.824V43.984C129.688 43.552 130.216 43.312 131.704 42.544L132.088 47.344C130.696 48.112 130.168 48.352 128.824 48.976V63.04C128.824 64.768 128.296 66.16 127.432 66.736C126.424 67.36 124.6 67.696 122.056 67.696C121.384 67.696 120.904 67.648 119.8 67.6C119.608 65.536 119.32 64.432 118.6 62.656C120.088 62.896 121.144 62.992 122.248 62.992C123.496 62.992 123.784 62.704 123.784 61.552V51.04C122.776 51.376 121.624 51.808 120.76 52.048C119.656 52.432 119.32 52.528 118.744 52.816L117.736 47.44C119.416 47.248 120.76 46.912 123.784 45.952V37.264H121.816C120.568 37.264 119.608 37.312 118.312 37.456V32.368C119.512 32.56 120.472 32.608 121.864 32.608H123.784ZM183.352 35.2H183.736C185.944 35.2 187.048 35.152 188.296 35.008C188.2 35.968 188.152 36.976 188.152 38.944V62.752C188.152 66.544 187 67.36 181.624 67.36C181.048 67.36 180.28 67.36 178.936 67.312C178.792 65.392 178.552 64.192 177.976 62.512C179.704 62.752 181.144 62.848 181.912 62.848C183.496 62.848 183.88 62.656 183.88 61.84V56.032H173.848C173.416 61.504 172.744 64.24 171.016 67.744C169.624 66.064 168.376 64.864 166.984 64C169.288 59.776 169.912 54.976 169.912 41.584C169.912 39.808 169.912 39.808 169.912 38.752C169.096 37.648 167.8 36.352 166.744 35.632C169.144 33.424 171.016 31.024 172.408 28.24C173.272 26.608 174.136 24.304 174.328 23.296L179.464 24.304C179.272 24.64 179.272 24.64 178.792 25.696C178.744 25.888 178.744 25.888 178.36 26.656H182.296C183.736 26.656 184.264 26.608 184.84 26.464L186.952 28.624C186.616 29.104 186.328 29.632 186.04 30.16C185.416 31.408 184.792 32.608 184.12 33.808C183.832 34.384 183.64 34.72 183.352 35.2ZM174.808 35.2H178.456C179.32 33.712 179.944 32.608 180.712 30.976H176.2C175.24 32.752 174.664 33.568 173.464 35.2C173.752 35.2 174.232 35.2 174.808 35.2ZM174.136 51.904H177.064V47.536H174.28C174.232 48.88 174.184 50.704 174.136 51.904ZM183.88 51.904V47.536H180.904V51.904H183.88ZM183.88 43.552V39.472H180.904V43.552H183.88ZM177.064 39.472H174.328V42.304C174.328 43.168 174.328 43.168 174.328 43.552H177.064V39.472ZM197.464 32.32V28.528C197.464 26.368 197.416 25.408 197.176 23.872H202.408C202.168 25.36 202.12 26.32 202.12 28.528V32.32H205.48C207.64 32.32 208.696 32.272 210.184 32.08C210.04 33.52 209.992 34.864 209.992 36.88V46.864C209.992 49.648 210.04 50.512 210.136 51.664C208.984 51.568 207.784 51.52 205.912 51.52H202.12V60.16C203.416 59.968 204.328 59.824 205.48 59.584C205.048 58.384 205.048 58.384 203.656 54.784L207.592 53.488C210.232 59.296 210.424 59.824 212.248 65.92L207.544 67.744C207.352 66.976 207.064 65.68 206.632 63.808C205.96 63.952 205.96 63.952 204.664 64.288C202.312 64.816 198.184 65.632 194.056 66.256C191.752 66.64 191.272 66.736 189.976 67.072L189.304 61.504C189.496 61.504 189.688 61.504 189.736 61.504C191.368 61.504 193.72 61.312 197.464 60.832V51.52H194.488C192.136 51.52 191.224 51.568 189.784 51.712C189.928 50.176 189.976 48.832 189.976 46.912V36.88C189.976 35.104 189.928 33.568 189.784 32.08C191.464 32.272 192.52 32.32 194.44 32.32H197.464ZM197.464 37.024H194.2V46.864H197.464V37.024ZM202.12 46.864H205.576V37.024H202.12V46.864ZM240.76 29.824H251.224C254.104 29.824 255.688 29.728 257.032 29.488V35.056C255.544 34.816 254.008 34.768 251.272 34.768H240.76V41.44H253.912C256.6 41.44 258.232 41.344 259.72 41.152V46.72C258.088 46.528 256.36 46.432 253.912 46.432H243.16C247.864 53.104 253.048 57.232 261.112 60.736C259.624 62.656 259.096 63.52 257.848 65.92C253.528 63.52 251.128 61.84 247.912 58.96C244.552 55.984 243.064 54.208 240.616 50.368C240.712 53.104 240.76 53.872 240.76 54.832V62.752C240.76 64.672 240.856 66.304 241.096 67.936H235.048C235.288 66.448 235.384 64.912 235.384 62.8V55.072C235.384 53.488 235.384 52.816 235.528 50.56C233.416 53.872 231.736 55.888 228.808 58.576C225.784 61.456 223.048 63.424 219.304 65.632C218.2 63.616 217.528 62.608 215.992 60.784C220.072 58.864 223.528 56.512 227.08 53.296C229.288 51.232 231.016 49.216 232.984 46.432H223.288C220.936 46.432 219.352 46.528 217.528 46.72V41.152C219.352 41.344 220.696 41.44 223.24 41.44H235.384V34.768H225.976C223.336 34.768 221.848 34.816 220.168 35.056V29.488C221.8 29.728 223.192 29.824 225.928 29.824H235.384V26.896C235.384 25.504 235.336 24.544 235.144 23.488H241C240.808 24.544 240.76 25.264 240.76 26.944V29.824ZM303.64 35.056L308.104 38.176C307.288 38.8 306.664 39.328 306.28 39.664C303.448 41.968 302.344 42.832 300.04 44.368C303.352 48.064 306.184 50.368 310.456 52.72C309.496 54.256 308.584 56.176 308.056 57.904C303.88 55.12 301.288 52.672 298.84 49.216C298.936 50.272 298.936 50.992 298.936 51.904C298.936 56.416 298.12 58.912 296.248 60.064C295.192 60.736 293.512 61.072 290.968 61.072C290.056 61.072 289.336 61.024 287.752 60.928C287.512 59.152 287.368 58.672 286.408 56.368C289.096 56.704 289.624 56.752 290.824 56.752C292.264 56.752 293.08 56.464 293.416 55.936C293.848 55.216 294.04 53.632 294.04 51.52V50.608C290.008 53.776 286.408 55.84 280.264 58.48C279.544 56.992 278.536 55.552 277.528 54.448C284.584 51.952 288.424 49.936 293.656 45.904C293.512 44.944 293.368 44.512 293.032 43.456C289.576 46.048 286.504 47.68 280.168 50.32C278.92 47.584 278.92 47.584 277.864 46.24C284.344 44.176 287.464 42.688 291.496 39.952C291.016 39.184 290.872 38.992 290.296 38.272C287.512 39.856 284.488 41.104 279.016 43.024C278.296 41.2 277.768 40.336 276.616 38.992C282.712 37.408 286.6 35.824 289.816 33.664H283.048C280.792 33.664 279.928 33.712 278.536 33.904V29.008C279.784 29.2 281.032 29.248 283.048 29.248H285.928C285.16 27.616 284.296 26.32 283 24.64L288.04 23.488C289.048 25.024 290.44 27.52 291.304 29.248H295.528C296.728 27.52 297.736 25.696 298.696 23.392L303.88 24.592C303.016 26.224 302.152 27.568 301.048 29.248H305.032C307.096 29.248 308.344 29.2 309.544 29.008V33.904C308.248 33.712 307 33.664 305.032 33.664H296.968C295.72 34.72 295.144 35.152 293.992 35.968C295.384 37.552 296.008 38.464 296.776 40.096L297.208 40.72C300.616 38.272 302.2 36.88 303.64 35.056ZM266.056 27.856L269.848 24.256C273.496 27.52 275.176 29.248 277.912 32.752L273.928 36.688C271.192 32.848 269.464 30.928 266.056 27.856ZM265.912 47.056V41.872C267.208 42.064 267.976 42.112 269.752 42.112H273.352C275.032 42.112 275.896 42.064 277 41.92C276.856 43.312 276.808 44.176 276.808 47.104V57.472C278.44 60.016 279.64 60.88 282.328 61.504C284.056 61.888 287.608 62.128 291.592 62.128C299.416 62.128 305.992 61.792 310.888 61.168C310.024 63.328 309.832 64.096 309.448 66.64C305.656 66.784 298.12 66.928 293.656 66.928C287.608 66.928 283.192 66.64 281.128 66.112C277.816 65.296 276.52 64.432 274.312 61.552C272.536 63.232 270.04 65.344 267.352 67.36L264.952 61.888C267.304 60.88 269.704 59.2 271.768 57.136V46.816H269.176C267.832 46.816 267.112 46.864 265.912 47.056Z" fill="#A0140A"/>
</svg>
