<svg width="403" height="92" viewBox="0 0 403 92" fill="none" xmlns="http://www.w3.org/2000/svg">
<rect width="92" height="92" rx="8" fill="#A0140A"/>
<path d="M38.1052 61.7827L30.2947 53.9721L22.1621 45.8396C21.4445 45.122 20.2762 45.122 19.5586 45.8396L11.748 53.6501C11.0305 54.3677 11.0305 55.5361 11.748 56.2536L18.5742 63.0798L0 81.6817V91.9945H10.4969L28.9975 73.4939L35.1797 79.6761C35.8973 80.3937 37.0656 80.3937 37.7832 79.6761L45.5938 71.8656C46.3114 71.148 46.3114 69.9796 45.5938 69.262L38.1144 61.7827H38.1052Z" fill="white"/>
<path d="M88.8353 0L54.3455 34.4897C54.1983 34.5725 54.0604 34.6645 53.9408 34.7933C53.2692 35.4649 49.5801 33.4134 46.6086 31.7574C44.2259 30.4327 41.5211 28.9239 38.3012 27.4243C28.2736 22.7417 24.9525 24.8576 24.1337 25.6856L17.6295 32.1898C16.9119 32.9074 16.9119 34.0757 17.6295 34.7933L37.1421 54.3059L56.6547 73.8185C57.3722 74.5361 58.5406 74.5361 59.2582 73.8185L65.7624 67.3143L72.2666 60.8101L92 41.0767V0H88.8353Z" fill="white"/>
<path d="M19.4134 20.874C19.6618 21.1592 20.0205 21.334 20.4161 21.3616C20.8301 21.3892 21.2257 21.242 21.5017 20.9568C22.8725 19.586 24.8596 18.9236 27.5919 18.9236C30.3242 18.9236 32.3298 19.586 33.6913 20.9568C33.9581 21.2236 34.3169 21.3708 34.7033 21.3708C35.0897 21.3708 35.4393 21.2236 35.7061 20.9568L42.8174 13.8454C43.0842 13.5786 43.2314 13.2106 43.2314 12.8242C43.2314 12.0423 42.5966 11.3983 41.8055 11.3983H41.7963C41.6583 11.3983 41.5203 11.4167 41.3915 11.4535L33.0197 13.919L28.8339 6.25564C28.5947 5.82325 28.1531 5.54726 27.6655 5.51966C27.1319 5.46446 26.6351 5.74045 26.3499 6.23724C26.3499 6.23724 24.05 10.2943 22.0721 13.8914L13.7831 11.4535C13.3599 11.3339 12.8908 11.4167 12.532 11.6927C12.1732 11.9687 11.9524 12.3918 11.9524 12.8334C11.9524 13.2474 12.1272 13.6338 12.44 13.9006L19.4042 20.8648L19.4134 20.874Z" fill="white"/>
<rect x="102" width="92" height="92" rx="8" fill="#A0140A"/>
<path d="M180.2 66.1809C174.1 66.1809 169.16 71.1213 169.16 77.2209C169.16 83.3205 174.1 88.2609 180.2 88.2609C186.3 88.2609 191.24 83.3205 191.24 77.2209C191.24 71.1213 186.3 66.1809 180.2 66.1809ZM180.2 80.9009C178.167 80.9009 176.52 79.2541 176.52 77.2209C176.52 75.1877 178.167 73.5409 180.2 73.5409C182.233 73.5409 183.88 75.1877 183.88 77.2209C183.88 79.2541 182.233 80.9009 180.2 80.9009Z" fill="white"/>
<path d="M194 22.0209V15.5809H166.4C165.765 15.5809 165.167 15.9121 164.836 16.4549L146.436 46.3549C146.261 46.6493 146.16 46.9805 146.16 47.3209V77.2209C146.16 78.2329 146.988 79.0609 148 79.0609H165.609C165.535 78.4537 165.48 77.8465 165.48 77.2209C165.48 69.0881 172.067 62.5009 180.2 62.5009C186.539 62.5009 191.93 66.5213 194 72.1425V33.0609L152.6 47.3209L168.7 22.0209H194Z" fill="white"/>
<path d="M145.273 20.726L137.692 24.866C137.306 25.0776 137.039 25.4732 136.975 25.9148C136.91 26.3656 137.058 26.8164 137.37 27.1292C137.665 27.4236 138.06 27.5708 138.474 27.5432H148.328C148.705 27.5708 149.082 27.4328 149.376 27.1752C149.689 26.8992 149.864 26.5128 149.855 26.1172C149.855 24.1852 150.793 22.2992 152.725 20.3672C154.657 18.4352 156.543 17.4876 158.475 17.4876C158.852 17.4876 159.211 17.3404 159.487 17.0736C159.754 16.8068 159.901 16.448 159.901 16.0708V6.02439C159.901 5.64719 159.745 5.27919 159.478 5.01239C158.926 4.46039 158.024 4.46039 157.463 5.01239C157.362 5.11359 157.279 5.22399 157.224 5.34359L153.047 13.0072L144.666 10.5508C144.188 10.4128 143.682 10.5324 143.314 10.8544C142.9 11.1948 142.743 11.7468 142.89 12.2896C142.89 12.2896 144.142 16.7884 145.273 20.726Z" fill="white"/>
<path d="M138.368 31.2281C137.024 31.2281 135.727 30.6945 134.761 29.7377C133.63 28.6061 133.096 26.9869 133.326 25.3953C133.556 23.8129 134.522 22.4053 135.911 21.6417L140.631 19.0657V17.8881C140.631 17.5477 140.53 17.2257 140.364 16.9497C140.042 16.4069 139.462 16.0481 138.791 16.0481H102V79.5281H138.8C139.812 79.5281 140.64 78.7001 140.64 77.6881V31.2281H138.57C138.506 31.2281 138.441 31.2281 138.377 31.2281H138.368Z" fill="white"/>
<path d="M225.355 29.0391C226.449 29.9635 227.608 31.1875 228.832 32.7109C228.949 32.8672 229.008 32.9844 229.008 33.0625C229.008 33.1536 228.878 33.2773 228.617 33.4336L226.391 35.0352C226.143 35.1914 225.98 35.2695 225.902 35.2695C225.837 35.2695 225.72 35.1654 225.551 34.957C224.626 33.6289 223.559 32.3333 222.348 31.0703C222.204 30.9401 222.133 30.8359 222.133 30.7578C222.133 30.6797 222.257 30.5625 222.504 30.4062L224.555 29.0391H217.309L212.074 29.1172C211.84 29.1172 211.697 29.0846 211.645 29.0195C211.605 28.9674 211.586 28.8438 211.586 28.6484V26.0703C211.586 25.862 211.618 25.7383 211.684 25.6992C211.736 25.6602 211.866 25.6406 212.074 25.6406L217.309 25.7188H233.188V23.7656H218.031L212.66 23.8438C212.452 23.8438 212.328 23.8112 212.289 23.7461C212.25 23.694 212.23 23.5703 212.23 23.375V21.1289C212.23 20.8945 212.257 20.7513 212.309 20.6992C212.361 20.6602 212.478 20.6406 212.66 20.6406L218.031 20.7188H233.188V18.7266H217.914L212.465 18.8047C212.257 18.8047 212.133 18.7786 212.094 18.7266C212.055 18.6745 212.035 18.5573 212.035 18.375V17.4766C211.944 17.5286 211.553 17.776 210.863 18.2188C210.46 18.4792 210.115 18.6875 209.828 18.8438C209.32 19.1432 209.014 19.293 208.91 19.293C208.689 19.293 208.448 18.974 208.188 18.3359C207.797 17.4766 207.263 16.7279 206.586 16.0898C211 13.694 214.268 10.9076 216.391 7.73047C216.977 6.84505 217.4 6.00521 217.66 5.21094C218.845 5.38021 220.18 5.66016 221.664 6.05078C222.042 6.16797 222.23 6.33724 222.23 6.55859C222.23 6.77995 222.094 6.98177 221.82 7.16406C221.391 7.5026 220.967 8.01042 220.551 8.6875L220.395 8.92188H227.27C227.699 8.92188 228.005 8.88281 228.188 8.80469C228.422 8.72656 228.604 8.6875 228.734 8.6875C229.047 8.6875 229.607 9.00651 230.414 9.64453C231.221 10.2826 231.625 10.7513 231.625 11.0508C231.625 11.3633 231.41 11.6302 230.98 11.8516C230.746 11.9688 230.336 12.3789 229.75 13.082C229.021 13.9805 228.324 14.7812 227.66 15.4844H230.395L236.82 15.4062C237.055 15.4062 237.198 15.4323 237.25 15.4844C237.289 15.5365 237.309 15.6536 237.309 15.8359L237.23 19.7227V24.7227L237.309 28.6289C237.309 28.8503 237.283 28.987 237.23 29.0391C237.178 29.0911 237.042 29.1172 236.82 29.1172L230.395 29.0391H225.355ZM214.672 15.4844H222.875C223.656 14.625 224.522 13.5443 225.473 12.2422H217.914C216.807 13.5182 215.727 14.599 214.672 15.4844ZM215.941 30.3281C217.491 30.3672 218.839 30.4453 219.984 30.5625C220.492 30.6406 220.746 30.7708 220.746 30.9531C220.746 31.0964 220.674 31.3242 220.531 31.6367C220.349 32.0143 220.258 32.6003 220.258 33.3945V35.9531C220.258 36.7734 220.473 37.3073 220.902 37.5547C221.371 37.8542 222.504 38.0039 224.301 38.0039C225.967 38.0039 227.126 37.9518 227.777 37.8477C228.376 37.7435 228.884 37.5547 229.301 37.2812C229.965 36.8646 230.336 35.6406 230.414 33.6094C231.234 34.1042 232.211 34.5273 233.344 34.8789C233.773 35.0091 234.034 35.1133 234.125 35.1914C234.242 35.2695 234.301 35.3997 234.301 35.582C234.301 35.6862 234.275 35.9076 234.223 36.2461C233.832 38.4076 233.083 39.8464 231.977 40.5625C231.195 41.0312 230.147 41.3372 228.832 41.4805C227.829 41.5846 226.28 41.6367 224.184 41.6367C220.785 41.6367 218.598 41.3568 217.621 40.7969C216.632 40.237 216.137 39.0781 216.137 37.3203V33.6484C216.137 32.3984 216.072 31.2917 215.941 30.3281ZM237.465 30.875C239.353 33.0365 240.941 35.25 242.23 37.5156C242.283 37.6328 242.309 37.7305 242.309 37.8086C242.309 37.9648 242.159 38.1341 241.859 38.3164L239.34 39.8008C239.092 39.957 238.93 40.0352 238.852 40.0352C238.734 40.0352 238.617 39.918 238.5 39.6836C237.055 36.8581 235.59 34.5924 234.105 32.8867C233.988 32.7435 233.93 32.6198 233.93 32.5156C233.93 32.3594 234.066 32.2161 234.34 32.0859L236.664 30.7969C236.846 30.7057 236.99 30.6602 237.094 30.6602C237.211 30.6602 237.335 30.7318 237.465 30.875ZM213.578 32.0469C213.852 32.151 213.988 32.2812 213.988 32.4375C213.988 32.5026 213.969 32.5938 213.93 32.7109C213.174 35.4974 211.99 38.056 210.375 40.3867C210.258 40.556 210.154 40.6406 210.062 40.6406C209.971 40.6406 209.822 40.5755 209.613 40.4453L206.977 38.8047C206.742 38.6224 206.625 38.4596 206.625 38.3164C206.625 38.2253 206.664 38.1211 206.742 38.0039C208.37 36.0378 209.529 33.7982 210.219 31.2852C210.284 31.0508 210.368 30.9336 210.473 30.9336C210.538 30.9336 210.694 30.9792 210.941 31.0703L213.578 32.0469ZM249.812 11.9297C251.492 12.112 254.051 12.2031 257.488 12.2031H271.766C272.768 12.2031 273.504 12.0664 273.973 11.793C274.155 11.6888 274.357 11.6367 274.578 11.6367C274.76 11.6367 275.008 11.7018 275.32 11.832C276.427 12.5352 277.404 13.4141 278.25 14.4688C278.432 14.7031 278.523 14.931 278.523 15.1523C278.523 15.4909 278.335 15.8229 277.957 16.1484C277.697 16.4219 277.391 16.9427 277.039 17.7109C274.891 22.8932 272.306 27.2292 269.285 30.7188C265.678 34.8203 261.896 37.9974 257.938 40.25C257.573 40.4844 257.189 40.6211 256.785 40.6602C256.46 40.6211 256.147 40.4583 255.848 40.1719C255.014 39.3646 253.777 38.6289 252.137 37.9648C255.223 36.4023 257.807 34.7943 259.891 33.1406C261.701 31.7083 263.471 29.9831 265.203 27.9648C268.211 24.5404 270.47 20.7383 271.98 16.5586H257.527C255.965 16.5586 253.764 16.6237 250.926 16.7539C250.509 16.793 250.255 16.526 250.164 15.9531C250.073 15.2891 249.956 13.9479 249.812 11.9297ZM275.125 8.43359L277.059 7.125C277.137 7.0599 277.215 7.02734 277.293 7.02734C277.397 7.02734 277.514 7.08594 277.645 7.20312C279.012 8.25781 280.281 9.68359 281.453 11.4805C281.531 11.5846 281.57 11.6823 281.57 11.7734C281.57 11.8906 281.492 12.0078 281.336 12.125L279.852 13.1992C279.734 13.2773 279.63 13.3164 279.539 13.3164C279.409 13.3164 279.285 13.2318 279.168 13.0625C277.931 11.1745 276.583 9.63151 275.125 8.43359ZM278.621 5.95312L280.34 4.68359C280.431 4.61849 280.516 4.58594 280.594 4.58594C280.685 4.58594 280.796 4.64453 280.926 4.76172C282.462 5.92057 283.732 7.29427 284.734 8.88281C284.812 9 284.852 9.10417 284.852 9.19531C284.852 9.32552 284.773 9.46224 284.617 9.60547L283.289 10.6797C283.185 10.7839 283.081 10.8359 282.977 10.8359C282.82 10.8359 282.697 10.7448 282.605 10.5625C281.486 8.77865 280.158 7.24219 278.621 5.95312ZM298.254 32.0078C301.548 30.7188 304.947 29.0391 308.449 26.9688C312.342 24.6641 315.878 21.9427 319.055 18.8047C319.094 20.6146 319.309 22.1576 319.699 23.4336C319.777 23.681 319.816 23.8958 319.816 24.0781C319.816 24.4297 319.641 24.7487 319.289 25.0352C316.333 27.5352 313 29.8268 309.289 31.9102C306.438 33.6029 303.176 35.2565 299.504 36.8711C298.488 37.3138 297.74 37.7435 297.258 38.1602C296.997 38.3685 296.757 38.4727 296.535 38.4727C296.34 38.4727 296.112 38.3685 295.852 38.1602C294.927 37.3919 294.113 36.487 293.41 35.4453C293.254 35.237 293.176 35.0221 293.176 34.8008C293.176 34.6055 293.241 34.3776 293.371 34.1172C293.475 33.8568 293.527 33.0951 293.527 31.832L293.625 16.793C293.625 13.7331 293.475 11.4154 293.176 9.83984C295.793 10.1654 297.525 10.4583 298.371 10.7188C298.801 10.849 299.016 11.1029 299.016 11.4805C299.016 11.6367 298.951 11.9167 298.82 12.3203C298.521 13.1536 298.371 14.8073 298.371 17.2812L298.254 32.0078ZM329.898 21.4414C331.982 21.7669 334.859 21.9297 338.531 21.9297H351.422C352.685 21.9297 354.312 21.9102 356.305 21.8711C358.844 21.832 360.283 21.806 360.621 21.793C360.686 21.793 360.751 21.793 360.816 21.793C361.168 21.793 361.344 21.9818 361.344 22.3594C361.383 22.9714 361.402 23.6029 361.402 24.2539C361.402 24.8919 361.383 25.5169 361.344 26.1289C361.344 26.5326 361.155 26.7344 360.777 26.7344H360.621C356.624 26.6823 353.648 26.6562 351.695 26.6562H337.301L331.422 27.1445C330.914 27.1445 330.608 26.8646 330.504 26.3047C330.27 25.25 330.068 23.6289 329.898 21.4414ZM382.441 15.1133L381.934 12.5547C381.543 10.6146 381.009 8.94792 380.332 7.55469C381.947 7.45052 383.171 7.39844 384.004 7.39844C384.564 7.39844 385.072 7.41797 385.527 7.45703C386.061 7.49609 386.328 7.69141 386.328 8.04297L386.25 9.29297C386.25 9.78776 386.302 10.3281 386.406 10.9141L387.012 14.2734L390.293 13.7266C393.757 13.1146 396.139 12.6328 397.441 12.2812C397.663 12.2812 397.812 12.431 397.891 12.7305C398.19 13.707 398.457 14.8529 398.691 16.168C398.691 16.4154 398.49 16.5586 398.086 16.5977C397.63 16.6758 396.458 16.8711 394.57 17.1836C393.177 17.418 392.122 17.6003 391.406 17.7305L387.891 18.3555L388.887 23.4922L394.688 22.4766C397.188 22.0599 399.277 21.6237 400.957 21.168C401.074 21.1419 401.172 21.1289 401.25 21.1289C401.484 21.1289 401.615 21.2917 401.641 21.6172C401.966 22.763 402.194 23.8242 402.324 24.8008C402.324 25.2174 402.122 25.4453 401.719 25.4844C400.82 25.6016 398.678 25.9466 395.293 26.5195L389.766 27.4766L390.684 31.9297C391.035 33.5573 391.628 35.9661 392.461 39.1562C392.461 39.1823 392.461 39.2018 392.461 39.2148C392.461 39.3581 392.285 39.4883 391.934 39.6055C390.853 39.957 389.642 40.237 388.301 40.4453C388.236 40.4453 388.19 40.4453 388.164 40.4453C387.76 40.4453 387.533 40.2826 387.48 39.957C387.428 39.6706 387.318 39.0521 387.148 38.1016C386.784 35.9661 386.471 34.306 386.211 33.1211L385.215 28.3945L379.766 29.3711C377.109 29.8398 374.948 30.2956 373.281 30.7383C373.164 30.7773 373.053 30.7969 372.949 30.7969C372.676 30.7969 372.48 30.6276 372.363 30.2891C372.051 29.3776 371.68 28.056 371.25 26.3242C373.307 26.0898 375.788 25.7318 378.691 25.25L384.297 24.332L383.281 19.1562L379.531 19.7617C377.148 20.1523 375.163 20.556 373.574 20.9727C373.47 20.9987 373.379 21.0117 373.301 21.0117C373.092 21.0117 372.93 20.862 372.812 20.5625C372.422 19.5729 372.051 18.2383 371.699 16.5586C373.691 16.4154 376.061 16.1224 378.809 15.6797L382.441 15.1133ZM260.953 78.668C261.174 78.7982 261.285 78.9089 261.285 79C261.285 79.0391 261.188 79.1953 260.992 79.4688L259.273 81.793C259.078 82.0664 258.915 82.2031 258.785 82.2031C258.694 82.2031 258.577 82.151 258.434 82.0469C255.921 80.3281 253.401 78.8828 250.875 77.7109C247.945 79.8724 243.941 81.2591 238.863 81.8711C238.447 81.9232 238.18 81.9492 238.062 81.9492C237.789 81.9492 237.509 81.5781 237.223 80.8359C236.871 79.9245 236.396 79.1497 235.797 78.5117C240.497 78.1602 244.137 77.3203 246.715 75.9922C245.816 75.6406 244.658 75.2305 243.238 74.7617L242.906 75.1133C242.555 75.582 242.262 75.8164 242.027 75.8164C241.858 75.8164 241.643 75.7578 241.383 75.6406L239.586 74.8398C239.143 74.6445 238.922 74.4688 238.922 74.3125C238.922 74.2214 239 74.0781 239.156 73.8828C239.977 72.9193 240.712 71.9688 241.363 71.0312C241.949 70.1198 242.333 69.5078 242.516 69.1953C241.161 69.2083 239.964 69.2279 238.922 69.2539C238.883 69.2539 238.616 69.2604 238.121 69.2734C237.991 69.2734 237.906 69.2734 237.867 69.2734C237.685 69.2734 237.574 69.2474 237.535 69.1953C237.496 69.1302 237.477 68.9935 237.477 68.7852V66.1875C237.477 65.9271 237.607 65.7969 237.867 65.7969L243.355 65.875H244.312L244.625 65.2695C245.172 64.0065 245.536 62.9844 245.719 62.2031H243.59L238.16 62.2812C237.939 62.2812 237.809 62.2552 237.77 62.2031C237.73 62.151 237.711 62.0339 237.711 61.8516V59.2148C237.711 58.9805 237.737 58.8372 237.789 58.7852C237.841 58.7461 237.965 58.7266 238.16 58.7266L243.59 58.8047H251.441C251.91 57.8151 252.359 56.6302 252.789 55.25C252.971 54.6771 253.082 54.0651 253.121 53.4141C254.371 53.5443 255.582 53.7266 256.754 53.9609C257.21 54.0521 257.438 54.2018 257.438 54.4102C257.438 54.5404 257.314 54.7227 257.066 54.957C256.91 55.1263 256.754 55.4062 256.598 55.7969C256.025 57.1901 255.582 58.1927 255.27 58.8047H256.188L261.637 58.7266C261.819 58.7266 261.93 58.7526 261.969 58.8047C262.008 58.8698 262.027 59.0065 262.027 59.2148V61.8516C262.027 62.138 261.897 62.2812 261.637 62.2812L256.188 62.2031H247.32L249.742 62.9258C250.081 63.043 250.25 63.2253 250.25 63.4727C250.25 63.7201 250.087 63.9609 249.762 64.1953C249.462 64.4427 249.124 64.9375 248.746 65.6797L248.629 65.875H256.148L261.637 65.7969H261.852C261.969 65.7969 262.027 65.9271 262.027 66.1875V68.7852C262.027 69.0065 262.008 69.1432 261.969 69.1953C261.93 69.2474 261.819 69.2734 261.637 69.2734C261.585 69.2734 261.383 69.2669 261.031 69.2539C259.846 69.2279 258.538 69.2083 257.105 69.1953C256.285 71.4219 255.165 73.3685 253.746 75.0352C256.35 76.1549 258.753 77.3659 260.953 78.668ZM245.27 71.9883C247.053 72.5221 248.655 73.056 250.074 73.5898C251.246 72.3789 252.19 70.9141 252.906 69.1953H246.91C246.22 70.4323 245.673 71.3633 245.27 71.9883ZM226.285 77.8477C226.923 77.9258 227.952 77.9648 229.371 77.9648C229.801 77.9648 230.081 77.8542 230.211 77.6328C230.315 77.4505 230.367 77.0924 230.367 76.5586V68.8438L228.766 69.3711C228.167 69.6055 227.698 69.8333 227.359 70.0547C227.164 70.2109 226.936 70.2891 226.676 70.2891C226.402 70.2891 226.233 70.1263 226.168 69.8008C225.934 68.8372 225.732 67.5872 225.562 66.0508C226.63 65.9336 227.854 65.6797 229.234 65.2891L230.367 64.957V57.125H229.723L226.246 57.2031C225.973 57.2031 225.836 57.0599 225.836 56.7734V53.8438C225.836 53.5573 225.973 53.4141 226.246 53.4141L229.723 53.4922H230.367V51.3633C230.367 49.2148 230.257 47.3203 230.035 45.6797C231.637 45.7318 233.004 45.8424 234.137 46.0117C234.592 46.0508 234.82 46.181 234.82 46.4023C234.82 46.5326 234.723 46.8125 234.527 47.2422C234.371 47.5677 234.293 48.9154 234.293 51.2852V53.4922L237.32 53.4141C237.542 53.4141 237.672 53.4401 237.711 53.4922C237.75 53.5443 237.77 53.6615 237.77 53.8438V56.7734C237.77 56.9818 237.743 57.1055 237.691 57.1445C237.639 57.1836 237.516 57.2031 237.32 57.2031L234.293 57.125V63.5703C236.077 62.7891 237.047 62.3594 237.203 62.2812C237.099 62.9974 237.021 64 236.969 65.2891C236.943 65.7188 236.897 65.9857 236.832 66.0898C236.754 66.194 236.559 66.3112 236.246 66.4414L234.293 67.3203V69.0781L234.41 77.0859C234.41 79.0391 233.967 80.3542 233.082 81.0312C232.6 81.3958 232.053 81.6367 231.441 81.7539C230.842 81.8711 229.964 81.9297 228.805 81.9297C228.544 81.9297 228.375 81.9297 228.297 81.9297C227.906 81.9297 227.659 81.8451 227.555 81.6758C227.477 81.5586 227.385 81.2396 227.281 80.7188C227.086 79.7422 226.754 78.7852 226.285 77.8477ZM244.547 53.2383L239.195 53.3164C238.987 53.3164 238.857 53.2904 238.805 53.2383C238.766 53.1862 238.746 53.069 238.746 52.8867V50.3086C238.746 50.0482 238.896 49.918 239.195 49.918L244.547 49.9961H247.32V48.9219C247.32 47.5286 247.236 46.4479 247.066 45.6797C248.395 45.7188 249.742 45.7969 251.109 45.9141C251.565 45.9531 251.793 46.0898 251.793 46.3242C251.793 46.4674 251.715 46.6758 251.559 46.9492C251.389 47.2747 251.305 47.9193 251.305 48.8828V49.9961H255.348L260.68 49.918C260.966 49.918 261.109 50.0482 261.109 50.3086V52.8867C261.109 53.0951 261.083 53.2188 261.031 53.2578C260.979 53.2969 260.862 53.3164 260.68 53.3164L255.348 53.2383H244.547ZM242.281 54.7227C242.229 54.5664 242.203 54.4622 242.203 54.4102C242.203 54.2669 242.346 54.1562 242.633 54.0781L244.918 53.5117C245.139 53.4727 245.283 53.4531 245.348 53.4531C245.504 53.4531 245.628 53.5443 245.719 53.7266C246.161 54.599 246.611 55.7578 247.066 57.2031C247.105 57.3073 247.125 57.3984 247.125 57.4766C247.125 57.6589 246.962 57.7956 246.637 57.8867L244.117 58.4727C243.948 58.5247 243.824 58.5508 243.746 58.5508C243.577 58.5508 243.46 58.4206 243.395 58.1602C243.121 57.0143 242.75 55.8685 242.281 54.7227ZM279.336 78.2773C280.026 78.2383 280.371 77.8151 280.371 77.0078V71.4414H272.363C272.051 75.3607 271.27 78.5703 270.02 81.0703C269.746 81.5781 269.531 81.832 269.375 81.832C269.258 81.832 269.069 81.6823 268.809 81.3828C268.027 80.4453 267.272 79.7422 266.543 79.2734C267.65 77.2292 268.392 75.0156 268.77 72.6328C269.121 70.5104 269.297 67.6198 269.297 63.9609V58.5703L268.887 59C268.561 59.3776 268.34 59.5664 268.223 59.5664C268.079 59.5664 267.865 59.2995 267.578 58.7656C267.096 57.8411 266.589 57.1315 266.055 56.6367C268.464 54.1628 270.26 51.3633 271.445 48.2383C271.849 47.3008 272.103 46.3958 272.207 45.5234C273.613 45.7708 274.733 46.0378 275.566 46.3242C275.996 46.4414 276.211 46.6302 276.211 46.8906C276.211 47.099 276.107 47.3073 275.898 47.5156C275.612 47.8021 275.332 48.2578 275.059 48.8828H278.809C279.108 48.8828 279.362 48.8438 279.57 48.7656C279.779 48.6615 279.948 48.6094 280.078 48.6094C280.273 48.6094 280.716 48.8893 281.406 49.4492C282.07 49.957 282.402 50.3411 282.402 50.6016C282.402 50.862 282.253 51.1029 281.953 51.3242C281.693 51.5586 281.432 51.9362 281.172 52.457C280.625 53.5768 280.104 54.5599 279.609 55.4062L283.242 55.3281C283.477 55.3281 283.62 55.3542 283.672 55.4062C283.711 55.4583 283.73 55.582 283.73 55.7773L283.652 60.4062V72.3594L283.73 77.7109C283.73 79.2865 283.398 80.3932 282.734 81.0312C282.07 81.5521 280.632 81.832 278.418 81.8711C277.754 81.8711 277.363 81.819 277.246 81.7148C277.116 81.5977 276.999 81.2526 276.895 80.6797C276.686 79.7031 276.354 78.8503 275.898 78.1211C277.148 78.2253 278.294 78.2773 279.336 78.2773ZM271.66 55.4062H275.859C276.523 54.2083 277.083 53.0495 277.539 51.9297H273.73C273.236 52.8932 272.546 54.0521 271.66 55.4062ZM272.578 68.3555H274.941V64.8789H272.656C272.656 65.8164 272.63 66.9753 272.578 68.3555ZM278.086 68.3555H280.371V64.8789H278.086V68.3555ZM280.371 58.4531H278.086V61.8125H280.371V58.4531ZM272.656 61.8125H274.941V58.4531H272.656V61.8125ZM300.625 72.0078C301.654 74.2865 302.572 77.0273 303.379 80.2305C303.405 80.3477 303.418 80.4323 303.418 80.4844C303.418 80.6667 303.242 80.8099 302.891 80.9141L300.703 81.5977C300.469 81.6628 300.319 81.6953 300.254 81.6953C300.137 81.6953 300.046 81.5846 299.98 81.3633C299.967 81.3112 299.831 80.7448 299.57 79.6641C299.44 79.1042 299.323 78.6419 299.219 78.2773C295.339 79.4362 291.641 80.3542 288.125 81.0312C287.539 81.1484 287.116 81.2852 286.855 81.4414C286.569 81.6237 286.341 81.7148 286.172 81.7148C285.938 81.7148 285.768 81.5391 285.664 81.1875C285.326 79.8854 285.046 78.5573 284.824 77.2031C286.009 77.1641 287.448 77.0273 289.141 76.793C289.57 76.7539 290.475 76.6237 291.855 76.4023V68.3164H289.297V69.6836C289.297 69.8789 289.271 70.0026 289.219 70.0547C289.167 70.0938 289.03 70.1133 288.809 70.1133H286.25C286.029 70.1133 285.892 70.0872 285.84 70.0352C285.801 69.9831 285.781 69.8659 285.781 69.6836L285.859 62.3594V58.8047L285.781 53.8438C285.781 53.6224 285.807 53.4922 285.859 53.4531C285.924 53.4141 286.055 53.3945 286.25 53.3945L290.742 53.4727H291.855V51.0703C291.855 48.987 291.764 47.2161 291.582 45.7578C293.34 45.8229 294.616 45.901 295.41 45.9922C295.814 46.0312 296.016 46.181 296.016 46.4414C296.016 46.5716 295.983 46.7409 295.918 46.9492C295.84 47.1966 295.788 47.3594 295.762 47.4375C295.632 48.0234 295.566 49.3711 295.566 51.4805V53.4727H296.816L301.328 53.3945C301.536 53.3945 301.667 53.4206 301.719 53.4727C301.758 53.5247 301.777 53.6484 301.777 53.8438L301.699 58.1992V62.2422L301.777 69.4883C301.777 69.7487 301.628 69.8789 301.328 69.8789H298.613C298.327 69.8789 298.184 69.7487 298.184 69.4883V68.3164H295.566V75.7578L298.301 75.1523C297.806 73.8242 297.526 73.082 297.461 72.9258C297.409 72.7956 297.383 72.6979 297.383 72.6328C297.383 72.4766 297.572 72.3464 297.949 72.2422L299.902 71.6758C300.046 71.6367 300.15 71.6172 300.215 71.6172C300.358 71.6172 300.495 71.7474 300.625 72.0078ZM298.184 56.8711H295.527V64.8789H298.184V56.8711ZM289.297 64.8789H291.895V56.8711H289.297V64.8789ZM314.32 65.0156L309.203 65.0938C308.995 65.0938 308.865 65.0677 308.812 65.0156C308.773 64.9635 308.754 64.8464 308.754 64.6641V61.5586C308.754 61.3503 308.78 61.2266 308.832 61.1875C308.884 61.1484 309.008 61.1289 309.203 61.1289L314.32 61.207H323.559V55.5234H317.836L312.309 55.6016C312.048 55.6016 311.918 55.4583 311.918 55.1719V51.9883C311.918 51.7018 312.048 51.5586 312.309 51.5586L317.836 51.6367H323.559V50.2305C323.559 48.1341 323.467 46.5521 323.285 45.4844C325.03 45.5234 326.495 45.6146 327.68 45.7578C328.109 45.7969 328.324 45.9466 328.324 46.207C328.324 46.3503 328.279 46.5391 328.188 46.7734C328.096 46.9948 328.044 47.151 328.031 47.2422C327.901 47.8672 327.836 48.8372 327.836 50.1523V51.6367H334.242L339.75 51.5586C340.023 51.5586 340.16 51.7018 340.16 51.9883V55.1719C340.16 55.4583 340.023 55.6016 339.75 55.6016L334.242 55.5234H327.836V61.207H337.68L342.797 61.1289C343.031 61.1289 343.168 61.1549 343.207 61.207C343.246 61.2591 343.266 61.3763 343.266 61.5586V64.6641C343.266 64.8594 343.24 64.9831 343.188 65.0352C343.148 65.0742 343.018 65.0938 342.797 65.0938L337.68 65.0156H329.672C331.508 67.3984 333.858 69.6055 336.723 71.6367C339.288 73.4727 341.964 74.944 344.75 76.0508C344.008 76.7539 343.318 77.724 342.68 78.9609C342.419 79.5729 342.191 79.8789 341.996 79.8789C341.892 79.8789 341.573 79.7487 341.039 79.4883C335.388 76.4935 330.948 72.5482 327.719 67.6523C327.732 68.7982 327.777 71.793 327.855 76.6367C327.895 79.2799 327.914 80.9596 327.914 81.6758C327.914 81.8841 327.888 82.0143 327.836 82.0664C327.784 82.1055 327.667 82.125 327.484 82.125H323.871C323.663 82.125 323.539 82.0924 323.5 82.0273C323.461 81.9883 323.441 81.8711 323.441 81.6758C323.441 81.3112 323.48 79.319 323.559 75.6992C323.624 72.5352 323.663 69.8789 323.676 67.7305C320.668 72.3008 316.443 76.1875 311 79.3906C310.531 79.6901 310.225 79.8398 310.082 79.8398C309.9 79.8398 309.659 79.5208 309.359 78.8828C308.878 77.8411 308.24 76.9232 307.445 76.1289C313.24 73.4987 317.875 69.7943 321.352 65.0156H314.32ZM358.68 71.0703C364.109 69.2604 368.576 66.8516 372.078 63.8438C371.948 63.4141 371.727 62.7956 371.414 61.9883C368.68 64.0977 365.691 65.8229 362.449 67.1641C361.928 67.3464 361.635 67.4375 361.57 67.4375C361.401 67.4375 361.186 67.1706 360.926 66.6367C360.561 65.7904 360.105 65.0417 359.559 64.3906C363.582 63.1016 367.026 61.3958 369.891 59.2734C369.461 58.6875 369.129 58.2448 368.895 57.9453C366.928 59.0781 364.656 60.0938 362.078 60.9922C361.648 61.1484 361.342 61.2266 361.16 61.2266C360.978 61.2266 360.77 60.9727 360.535 60.4648C360.171 59.6445 359.676 58.8633 359.051 58.1211C362.866 57.1966 366.16 55.901 368.934 54.2344H365.281L359.812 54.3125C359.578 54.3125 359.435 54.2865 359.383 54.2344C359.344 54.1823 359.324 54.0651 359.324 53.8828V51.2266C359.324 51.0182 359.357 50.8945 359.422 50.8555C359.474 50.8164 359.604 50.7969 359.812 50.7969L365.281 50.875H366.277L366.16 50.6406C365.353 49.1562 364.624 48.0234 363.973 47.2422C363.868 47.112 363.816 47.0143 363.816 46.9492C363.816 46.8711 363.986 46.7669 364.324 46.6367L367.039 45.6406C367.182 45.5885 367.286 45.5625 367.352 45.5625C367.456 45.5625 367.592 45.6536 367.762 45.8359C368.686 46.9167 369.474 48.0755 370.125 49.3125C370.203 49.4167 370.242 49.5013 370.242 49.5664C370.242 49.6706 370.086 49.7878 369.773 49.918L367.215 50.875H372.918C373.66 49.8464 374.318 48.7396 374.891 47.5547C375.19 46.8516 375.431 46.1615 375.613 45.4844C377.007 45.7188 378.354 46.0768 379.656 46.5586C380.034 46.6758 380.223 46.832 380.223 47.0273C380.223 47.2487 380.086 47.4505 379.812 47.6328C379.5 47.8542 379.272 48.1081 379.129 48.3945C378.647 49.1758 378.074 50.0026 377.41 50.875H378.68L384.168 50.7969C384.402 50.7969 384.539 50.8229 384.578 50.875C384.617 50.9271 384.637 51.0443 384.637 51.2266V53.8828C384.637 54.0911 384.611 54.2148 384.559 54.2539C384.507 54.293 384.376 54.3125 384.168 54.3125L378.68 54.2344H374.207C373.387 54.9245 372.612 55.5234 371.883 56.0312C372.951 57.2943 373.829 58.681 374.52 60.1914C376.056 59.0846 377.378 57.9779 378.484 56.8711C379.174 56.194 379.721 55.556 380.125 54.957C381.076 55.5951 381.987 56.2721 382.859 56.9883C383.315 57.3659 383.543 57.6589 383.543 57.8672C383.543 58.0885 383.354 58.2643 382.977 58.3945C382.482 58.5898 381.896 58.974 381.219 59.5469C380.255 60.3802 378.862 61.4089 377.039 62.6328C379.37 65.3411 382.306 67.6328 385.848 69.5078C385.158 70.3281 384.585 71.3438 384.129 72.5547C383.908 73.1146 383.719 73.3945 383.562 73.3945C383.419 73.3945 383.139 73.2448 382.723 72.9453C380.236 71.1224 378.087 68.9284 376.277 66.3633C376.395 67.1055 376.453 67.9128 376.453 68.7852C376.453 71.793 375.978 73.8893 375.027 75.0742C374.194 76.1159 372.866 76.6367 371.043 76.6367C370.066 76.6367 369.188 76.5846 368.406 76.4805C367.872 76.4154 367.553 76.3177 367.449 76.1875C367.345 76.0573 367.234 75.6992 367.117 75.1133C366.909 74.0846 366.629 73.2448 366.277 72.5938C368.087 72.8932 369.48 73.043 370.457 73.043C371.251 73.043 371.818 72.7695 372.156 72.2227C372.547 71.5846 372.742 70.4974 372.742 68.9609L372.684 67.5156C369.298 70.3932 365.711 72.5807 361.922 74.0781C361.414 74.2865 361.108 74.3906 361.004 74.3906C360.835 74.3906 360.633 74.1237 360.398 73.5898C359.812 72.5091 359.24 71.6693 358.68 71.0703ZM386.062 76.7148C385.516 77.5872 385.184 78.5508 385.066 79.6055C384.962 80.2695 384.839 80.6536 384.695 80.7578C384.565 80.862 384.194 80.9271 383.582 80.9531C379.246 81.2005 374.585 81.3242 369.598 81.3242C365.027 81.3242 361.902 80.9792 360.223 80.2891C358.426 79.5339 357.039 78.3555 356.062 76.7539C355.086 77.7435 353.816 78.8828 352.254 80.1719C351.746 80.5495 351.427 80.8294 351.297 81.0117C351.193 81.194 351.023 81.2852 350.789 81.2852C350.568 81.2852 350.379 81.1224 350.223 80.7969C349.78 79.9896 349.233 78.7656 348.582 77.125C349.585 76.6562 350.372 76.2266 350.945 75.8359C352.104 75.1198 353.159 74.2669 354.109 73.2773V64.3906H352.293L349.461 64.4883C349.227 64.4883 349.09 64.4557 349.051 64.3906C348.999 64.3385 348.973 64.2083 348.973 64V60.9531C348.973 60.7448 349.005 60.6211 349.07 60.582C349.122 60.543 349.253 60.5234 349.461 60.5234L352.293 60.6016H354.656L357.625 60.5234C357.833 60.5234 357.964 60.5495 358.016 60.6016C358.055 60.6536 358.074 60.7708 358.074 60.9531L357.996 64.8398V73.6094C358.764 75.1328 359.949 76.207 361.551 76.832C362.957 77.3138 365.424 77.5547 368.953 77.5547C374.37 77.5547 380.073 77.2747 386.062 76.7148ZM353.172 46.8711C355.164 48.694 356.831 50.6406 358.172 52.7109C358.263 52.8542 358.309 52.9648 358.309 53.043C358.309 53.1602 358.178 53.3034 357.918 53.4727L355.77 55.3281C355.483 55.5104 355.307 55.6016 355.242 55.6016C355.177 55.6016 355.073 55.5104 354.93 55.3281C353.38 52.8802 351.746 50.8099 350.027 49.1172C349.91 48.987 349.852 48.8828 349.852 48.8047C349.852 48.6875 349.969 48.5508 350.203 48.3945L352.332 46.8711C352.527 46.7409 352.684 46.6758 352.801 46.6758C352.944 46.6758 353.068 46.7409 353.172 46.8711Z" fill="#A0140A"/>
</svg>
