<svg width="60" height="60" viewBox="0 0 60 60" fill="none" xmlns="http://www.w3.org/2000/svg">
<path d="M29.6061 27.6609C33.6743 27.6609 36.98 24.3552 36.98 20.287C36.98 16.2189 33.6743 12.9131 29.6061 12.9131C25.5379 12.9131 22.2322 16.2189 22.2322 20.287C22.2322 24.3552 25.5379 27.6609 29.6061 27.6609ZM29.6061 17.125C31.3496 17.125 32.7681 18.5435 32.7681 20.287C32.7681 22.0305 31.3496 23.449 29.6061 23.449C27.8626 23.449 26.4441 22.0305 26.4441 20.287C26.4441 18.5435 27.8626 17.125 29.6061 17.125Z" fill="#0D47A0"/>
<path d="M28.2629 45.619C28.6503 45.9378 29.1253 46.1002 29.6002 46.1002C30.0751 46.1002 30.5501 45.9378 30.9375 45.619C31.4812 45.1691 44.3168 34.4957 44.848 21.1726C44.8667 20.8789 44.873 20.579 44.873 20.279C44.873 11.8552 38.0177 5 29.594 5C21.1702 5 14.3149 11.8552 14.3149 20.279C14.3149 20.579 14.3274 20.8727 14.3399 21.1351C14.8774 34.4894 27.7067 45.1691 28.2566 45.6128L28.2629 45.619ZM29.6002 9.21813C35.6993 9.21813 40.6611 14.1799 40.6611 20.279C40.6611 20.4977 40.6548 20.7164 40.6361 20.9664C40.2674 30.0776 32.7247 38.1764 29.594 41.151C26.4694 38.1764 18.9205 30.0713 18.5518 20.9352C18.5393 20.7227 18.5331 20.504 18.5331 20.2853C18.5331 14.1862 23.4948 9.22438 29.594 9.22438L29.6002 9.21813Z" fill="#0D47A0"/>
<path d="M41.22 38.2837C40.2701 39.646 39.2953 40.8833 38.3642 41.9894C44.7257 43.058 48.094 45.0952 48.094 46.095C48.094 47.4886 41.6137 50.8881 29.6029 50.8881C17.5922 50.8881 11.1119 47.4886 11.1119 46.095C11.1119 45.0952 14.4864 43.058 20.848 41.9894C19.9169 40.8833 18.942 39.646 17.9921 38.2837C10.5057 39.9022 7 43.0767 7 46.095C7 50.3819 14.074 55 29.5967 55C45.1194 55 52.1934 50.3882 52.1934 46.095C52.1934 43.0767 48.6876 39.9022 41.2075 38.2837H41.22Z" fill="#0D47A0"/>
</svg>
