<svg width="72" height="72" viewBox="0 0 72 72" fill="none" xmlns="http://www.w3.org/2000/svg">
<path d="M36 66C19.455 66 6 52.545 6 36C6 19.455 19.455 6 36 6C52.545 6 66 19.455 66 36C66 52.545 52.545 66 36 66ZM36 11.4525C22.4625 11.4525 11.4525 22.4625 11.4525 36C11.4525 49.5375 22.4625 60.5475 36 60.5475C49.5375 60.5475 60.5475 49.5375 60.5475 36C60.5475 22.4625 49.5375 11.4525 36 11.4525Z" fill="#767676"/>
<path d="M35.9925 51C35.1675 51 34.4625 50.715 33.8775 50.1525C33.2925 49.59 33 48.9 33 48.09C33 47.28 33.2925 46.575 33.8775 46.02C34.4625 45.465 35.1675 45.1875 35.9925 45.1875C36.8175 45.1875 37.5375 45.465 38.115 46.02C38.6925 46.575 38.985 47.265 38.985 48.09C38.985 48.915 38.6925 49.59 38.115 50.1525C37.5375 50.715 36.8325 51 35.9925 51ZM33.765 40.8075L33.3525 21H38.6325L38.2425 40.8075H33.765Z" fill="#767676"/>
</svg>
