<svg width="70" height="70" viewBox="0 0 70 70" fill="none" xmlns="http://www.w3.org/2000/svg">
<path d="M34.9997 64.1641C18.9143 64.1641 5.83301 51.0829 5.83301 34.9975C5.83301 18.9121 18.9143 5.83081 34.9997 5.83081C51.0851 5.83081 64.1663 18.9121 64.1663 34.9975C64.1663 51.0829 51.0851 64.1641 34.9997 64.1641ZM34.9997 11.1319C21.8382 11.1319 11.134 21.836 11.134 34.9975C11.134 48.1589 21.8382 58.8631 34.9997 58.8631C48.1611 58.8631 58.8653 48.1589 58.8653 34.9975C58.8653 21.836 48.1611 11.1319 34.9997 11.1319Z" fill="#A0140A"/>
<path d="M34.9924 49.5807C34.1903 49.5807 33.5049 49.3036 32.9361 48.7568C32.3674 48.2099 32.083 47.5391 32.083 46.7516C32.083 45.9641 32.3674 45.2786 32.9361 44.7391C33.5049 44.1995 34.1903 43.9297 34.9924 43.9297C35.7945 43.9297 36.4945 44.1995 37.0559 44.7391C37.6174 45.2786 37.9018 45.9495 37.9018 46.7516C37.9018 47.5536 37.6174 48.2099 37.0559 48.7568C36.4945 49.3036 35.8091 49.5807 34.9924 49.5807ZM32.8268 39.6714L32.4257 20.4141H37.5591L37.1799 39.6714H32.8268Z" fill="#A0140A"/>
</svg>
