<svg width="359" height="92" viewBox="0 0 359 92" fill="none" xmlns="http://www.w3.org/2000/svg">
<rect width="92" height="92" rx="8" fill="#A0140A"/>
<path d="M38.1052 61.7826L30.2947 53.972L22.1621 45.8395C21.4445 45.1219 20.2762 45.1219 19.5586 45.8395L11.748 53.65C11.0305 54.3676 11.0305 55.5359 11.748 56.2535L18.5742 63.0797L0 81.6815V91.9944H10.4969L28.9975 73.4938L35.1797 79.676C35.8973 80.3936 37.0656 80.3936 37.7832 79.676L45.5938 71.8654C46.3114 71.1479 46.3114 69.9795 45.5938 69.2619L38.1144 61.7826H38.1052Z" fill="white"/>
<path d="M88.8353 0L54.3455 34.4897C54.1983 34.5725 54.0604 34.6645 53.9408 34.7933C53.2692 35.4649 49.5801 33.4134 46.6086 31.7574C44.2259 30.4326 41.5211 28.9239 38.3012 27.4243C28.2736 22.7417 24.9525 24.8576 24.1337 25.6856L17.6295 32.1898C16.9119 32.9074 16.9119 34.0757 17.6295 34.7933L37.1421 54.3059L56.6547 73.8185C57.3722 74.5361 58.5406 74.5361 59.2582 73.8185L65.7624 67.3143L72.2666 60.8101L92 41.0767V0H88.8353Z" fill="white"/>
<path d="M19.4134 20.874C19.6618 21.1592 20.0205 21.334 20.4161 21.3616C20.8301 21.3892 21.2257 21.242 21.5017 20.9568C22.8725 19.586 24.8596 18.9236 27.5919 18.9236C30.3242 18.9236 32.3298 19.586 33.6913 20.9568C33.9581 21.2236 34.3169 21.3708 34.7033 21.3708C35.0897 21.3708 35.4393 21.2236 35.7061 20.9568L42.8174 13.8454C43.0842 13.5786 43.2314 13.2106 43.2314 12.8242C43.2314 12.0423 42.5966 11.3983 41.8055 11.3983H41.7963C41.6583 11.3983 41.5203 11.4167 41.3915 11.4535L33.0197 13.919L28.8339 6.25564C28.5947 5.82325 28.1531 5.54726 27.6655 5.51966C27.1319 5.46446 26.6351 5.74045 26.3499 6.23724C26.3499 6.23724 24.05 10.2943 22.0721 13.8914L13.7831 11.4535C13.3599 11.3339 12.8908 11.4167 12.532 11.6927C12.1732 11.9687 11.9524 12.3918 11.9524 12.8334C11.9524 13.2474 12.1272 13.6338 12.44 13.9006L19.4042 20.8648L19.4134 20.874Z" fill="white"/>
<path d="M147.357 52.048H141.309C142.845 53.344 144.141 54.784 145.485 56.464C145.821 56.896 145.773 56.992 145.245 57.328L142.557 59.248C142.269 59.44 142.125 59.536 141.981 59.536C141.837 59.536 141.741 59.392 141.549 59.152C140.253 57.28 139.101 55.936 137.709 54.496C137.325 54.112 137.373 54.016 137.901 53.68L140.349 52.048H131.661C127.197 52.048 125.661 52.144 125.373 52.144C124.845 52.144 124.797 52.096 124.797 51.568V48.496C124.797 48.016 124.845 47.968 125.373 47.968C125.661 47.968 127.197 48.064 131.661 48.064H150.717V45.712H132.525C127.965 45.712 126.381 45.808 126.093 45.808C125.613 45.808 125.565 45.76 125.565 45.232V42.544C125.565 42.016 125.613 41.968 126.093 41.968C126.381 41.968 127.965 42.064 132.525 42.064H150.717V39.664H132.381C127.773 39.664 126.141 39.76 125.853 39.76C125.373 39.76 125.325 39.712 125.325 39.232V38.176C124.461 38.704 123.597 39.28 122.685 39.808C122.109 40.144 121.821 40.336 121.581 40.336C121.245 40.336 121.053 40 120.717 39.184C120.237 38.128 119.565 37.216 118.797 36.496C124.365 33.472 127.965 30.352 130.557 26.464C131.229 25.456 131.757 24.448 132.093 23.44C134.013 23.728 135.405 24.064 136.893 24.448C137.325 24.592 137.565 24.736 137.565 25.072C137.565 25.36 137.373 25.6 137.085 25.792C136.653 26.128 136.269 26.464 135.549 27.616L135.357 27.904H143.613C144.189 27.904 144.381 27.904 144.717 27.76C145.005 27.664 145.149 27.616 145.389 27.616C145.773 27.616 146.253 27.856 147.405 28.768C148.605 29.728 148.845 30.064 148.845 30.448C148.845 30.88 148.557 31.168 148.077 31.408C147.693 31.6 147.309 32.032 146.589 32.896C145.821 33.856 145.005 34.816 144.093 35.776H147.357C152.349 35.776 154.797 35.68 155.085 35.68C155.613 35.68 155.661 35.728 155.661 36.208C155.661 36.496 155.565 37.888 155.565 40.864V46.864C155.565 49.888 155.661 51.28 155.661 51.568C155.661 52.096 155.613 52.144 155.085 52.144C154.797 52.144 152.349 52.048 147.357 52.048ZM128.493 35.776H138.333C139.485 34.528 140.445 33.28 141.453 31.888H132.381C131.181 33.28 129.933 34.576 128.493 35.776ZM130.269 61.984V57.568C130.269 56.128 130.221 54.976 130.029 53.584C131.805 53.632 133.485 53.728 134.877 53.872C135.501 53.968 135.789 54.16 135.789 54.352C135.789 54.64 135.693 54.832 135.549 55.168C135.309 55.648 135.213 56.224 135.213 57.28V60.352C135.213 61.408 135.405 61.936 135.981 62.272C136.749 62.752 138.189 62.8 140.061 62.8C143.805 62.8 145.005 62.656 146.061 61.936C146.829 61.456 147.309 59.968 147.405 57.52C148.413 58.144 149.661 58.672 150.909 59.056C152.157 59.44 152.157 59.44 151.965 60.688C151.437 63.616 150.621 65.008 149.277 65.872C147.405 66.976 145.005 67.168 139.917 67.168C135.837 67.168 133.389 66.928 132.045 66.16C130.941 65.536 130.269 64.576 130.269 61.984ZM152.109 55.696L154.893 54.16C155.373 53.92 155.565 53.92 155.853 54.256C157.917 56.608 159.885 59.248 161.565 62.224C161.757 62.656 161.661 62.848 161.133 63.184L158.109 64.96C157.821 65.152 157.629 65.248 157.533 65.248C157.341 65.248 157.245 65.104 157.101 64.816C155.373 61.456 153.645 58.768 151.821 56.656C151.485 56.272 151.533 55.984 152.109 55.696ZM124.029 54.496L127.197 55.648C127.677 55.84 127.773 55.984 127.629 56.464C126.669 59.968 125.277 62.896 123.357 65.68C123.069 66.064 122.973 66.064 122.445 65.728L119.277 63.76C118.749 63.376 118.749 63.136 118.989 62.8C120.909 60.496 122.301 57.904 123.165 54.736C123.309 54.208 123.405 54.256 124.029 54.496ZM197.277 37.072H179.949C176.829 37.072 174.093 37.216 172.029 37.312C171.405 37.36 171.213 37.024 171.117 36.352C170.973 35.392 170.781 32.896 170.685 31.504C172.845 31.744 175.389 31.84 179.901 31.84H197.037C198.477 31.84 199.005 31.744 199.677 31.36C199.917 31.216 200.157 31.168 200.397 31.168C200.685 31.168 200.973 31.264 201.309 31.408C202.605 32.224 203.901 33.424 204.813 34.576C205.053 34.864 205.149 35.104 205.149 35.392C205.149 35.824 204.909 36.208 204.477 36.592C204.045 37.024 203.805 37.504 203.373 38.464C201.021 44.128 198.093 49.408 194.061 54.064C189.933 58.768 185.277 62.752 180.429 65.488C179.997 65.776 179.565 65.92 179.133 65.92C178.749 65.92 178.317 65.776 177.933 65.392C176.829 64.336 175.245 63.472 173.469 62.752C180.477 59.2 184.749 55.888 189.165 50.752C192.909 46.48 195.357 42.4 197.277 37.072ZM201.069 27.328L203.373 25.744C203.613 25.552 203.805 25.6 204.093 25.84C205.581 26.992 207.309 28.912 208.653 30.976C208.845 31.264 208.845 31.504 208.509 31.744L206.733 33.04C206.397 33.28 206.157 33.232 205.917 32.896C204.477 30.688 202.941 28.864 201.069 27.328ZM205.245 24.352L207.309 22.816C207.597 22.624 207.741 22.672 208.029 22.912C209.805 24.256 211.533 26.176 212.589 27.856C212.781 28.144 212.829 28.384 212.445 28.72L210.861 30.016C210.717 30.16 210.573 30.208 210.477 30.208C210.285 30.208 210.141 30.064 210.045 29.872C208.749 27.808 207.213 25.984 205.245 24.352ZM228.955 37.936L228.811 55.6C232.507 54.16 236.107 52.48 241.051 49.552C246.571 46.288 249.883 43.6 253.771 39.76C253.819 41.968 254.107 43.888 254.539 45.328C254.827 46.24 254.683 46.72 254.059 47.248C250.123 50.56 246.139 53.2 242.059 55.504C238.411 57.664 234.667 59.536 230.299 61.456C229.099 61.984 228.235 62.464 227.611 62.992C227.323 63.232 227.035 63.376 226.747 63.376C226.459 63.376 226.219 63.232 225.931 62.992C224.827 62.08 223.867 61.024 223.003 59.728C222.811 59.488 222.715 59.248 222.715 58.96C222.715 58.72 222.811 58.432 222.955 58.144C223.147 57.664 223.147 56.752 223.147 55.408L223.243 37.36C223.243 33.424 223.099 31.072 222.715 29.008C225.403 29.344 227.851 29.728 228.955 30.064C229.435 30.208 229.723 30.496 229.723 30.976C229.723 31.216 229.627 31.552 229.483 31.984C229.147 32.944 228.955 34.528 228.955 37.936ZM292.939 49.168H275.659C270.907 49.168 269.083 49.744 268.603 49.744C268.027 49.744 267.643 49.456 267.499 48.736C267.259 47.632 266.971 45.376 266.779 42.928C269.899 43.408 272.299 43.504 277.147 43.504H292.603C296.251 43.504 299.947 43.408 303.643 43.36C304.363 43.312 304.507 43.456 304.507 44.032C304.603 45.472 304.603 47.104 304.507 48.544C304.507 49.12 304.315 49.312 303.643 49.264C300.043 49.216 296.491 49.168 292.939 49.168ZM329.851 35.344L329.227 32.272C328.747 29.872 328.219 28.144 327.307 26.272C329.371 26.128 331.483 25.984 333.547 26.128C334.171 26.176 334.507 26.368 334.507 26.848C334.507 27.376 334.219 28.24 334.603 30.304L335.323 34.336L339.259 33.664C341.995 33.184 345.355 32.608 347.851 31.936C348.091 31.936 348.283 32.128 348.379 32.464C348.763 33.712 349.051 34.96 349.339 36.592C349.339 36.928 349.099 37.072 348.619 37.12C346.411 37.504 343.003 38.032 340.603 38.464L336.379 39.232L337.579 45.376L344.539 44.176C347.947 43.6 350.299 43.072 352.075 42.592C352.699 42.448 352.843 42.64 352.891 43.12C353.227 44.32 353.515 45.52 353.707 46.96C353.707 47.392 353.467 47.728 352.987 47.776C351.547 47.968 348.667 48.448 345.259 49.024L338.635 50.176L339.739 55.504C340.411 58.72 341.227 61.792 341.851 64.192C341.899 64.432 341.659 64.576 341.227 64.72C340.219 65.056 338.155 65.536 336.859 65.728C336.235 65.776 335.947 65.536 335.899 65.152C335.563 63.376 335.035 60.016 334.363 56.944L333.163 51.28L326.635 52.432C323.371 53.008 320.683 53.584 318.859 54.064C318.331 54.256 317.947 54.112 317.755 53.536C317.275 52.144 316.795 50.32 316.411 48.784C319.339 48.448 321.883 48.064 325.339 47.488L332.059 46.384L330.859 40.192L326.347 40.912C323.707 41.344 320.491 42.016 319.195 42.352C318.715 42.496 318.475 42.352 318.283 41.872C317.851 40.768 317.227 38.416 316.939 37.072C319.531 36.88 322.171 36.544 325.483 36.016L329.851 35.344Z" fill="#A0140A"/>
</svg>
