<svg width="60" height="60" viewBox="0 0 60 60" fill="none" xmlns="http://www.w3.org/2000/svg">
<path d="M15.0874 50C14.7355 50 14.3777 49.9105 14.0616 49.7314C13.4055 49.3612 13 48.6627 13 47.9105V12.0911C13 11.3389 13.4055 10.6464 14.0616 10.2703C14.7176 9.90016 15.5168 9.9121 16.1668 10.2942L45.9861 28.2039C46.6123 28.58 47 29.2606 47 29.9949C47 30.7292 46.6123 31.4097 45.9861 31.7858L16.1668 49.6955C15.8388 49.8925 15.4631 49.994 15.0933 49.994L15.0874 50ZM17.1747 15.7805V44.2211L40.8512 30.0008L17.1747 15.7805Z" fill="#0D47A0"/>
</svg>
